<svg id="Layer_2" data-name="Layer 2" xmlns="http://www.w3.org/2000/svg" viewBox="0 0 283.46 45.42">
  <defs>
    <style>
      .cls-1, .cls-2 {
        fill: #231f20;
      }

      .cls-2 {
        fill-rule: evenodd;
      }
    </style>
  </defs>
  <g id="Layer_1-2" data-name="Layer 1">
    <g>
      <path class="cls-1" d="M23.4,45.09C10.84,45.09.56,35.15,0,22.72c-.03-.58.43-1.06,1.01-1.06h1.01c.53,0,.98.42,1.01.95.5,10.81,9.45,19.45,20.38,19.45s19.88-8.64,20.38-19.45c.02-.53.47-.95,1.01-.95h1.01c.58,0,1.03.48,1.01,1.06-.56,12.43-10.84,22.37-23.4,22.37"></path>
      <path class="cls-1" d="M23.44,34.83c-5.79-.06-10.41-4.86-10.41-10.64V1.52c0-.56.45-1.01,1.01-1.01h1.01c.56,0,1.01.45,1.01,1.01v22.68c0,4.1,3.24,7.53,7.34,7.61,4.19.08,7.63-3.31,7.63-7.48,0-3.83-2.89-6.99-6.6-7.43-.51-.06-.89-.49-.89-1v-1.07c0-.56.45-1.01,1.01-1.01h18.25c.56,0,1.01.45,1.01,1.01v1.01c0,.56-.45,1.01-1.01,1.01h-11.89c1.94,1.91,3.14,4.56,3.14,7.49,0,5.83-4.77,10.57-10.61,10.51"></path>
      <path class="cls-1" d="M43.57,4.32c0,2.11-1.71,3.82-3.82,3.82s-3.82-1.71-3.82-3.82,1.71-3.82,3.82-3.82,3.82,1.71,3.82,3.82"></path>
      <path class="cls-2" d="M281.91,1.63c-.62-.62-1.49-1.01-2.44-1.01s-1.81.39-2.44,1.01c-.62.62-1.01,1.49-1.01,2.44s.39,1.81,1.01,2.44c.62.62,1.48,1.01,2.44,1.01s1.81-.39,2.44-1.01c.62-.62,1.01-1.48,1.01-2.44s-.39-1.81-1.01-2.44M279.47.08c1.1,0,2.1.45,2.82,1.17.72.72,1.17,1.72,1.17,2.82s-.45,2.1-1.17,2.82c-.72.72-1.72,1.17-2.82,1.17s-2.1-.45-2.82-1.17c-.72-.72-1.17-1.72-1.17-2.82s.45-2.1,1.17-2.82c.72-.72,1.72-1.17,2.82-1.17"></path>
      <path class="cls-2" d="M278.67,3.71h.59c.39,0,.63-.02.72-.05.1-.03.17-.09.22-.17.06-.08.08-.18.08-.3,0-.14-.04-.24-.11-.33-.07-.08-.17-.13-.3-.16-.07,0-.26-.01-.59-.01h-.63v1.01ZM277.86,6.01v-3.98h1.7c.43,0,.73.04.93.11.19.07.35.2.46.38.12.18.17.39.17.63,0,.3-.09.54-.26.74-.18.19-.44.32-.79.37.17.1.32.21.43.33.11.12.26.34.46.65l.49.78h-.96l-.58-.87c-.21-.31-.35-.5-.43-.58-.08-.08-.16-.13-.24-.16-.09-.03-.22-.04-.41-.04h-.16v1.66h-.81Z"></path>
      <path class="cls-2" d="M66.74,22.71V.5h5.6c1.6,0,2.78.09,3.54.26.76.17,1.41.45,1.95.85.69.51,1.22,1.17,1.6,1.99.38.82.57,1.73.57,2.72,0,1.18-.27,2.17-.82,2.96-.55.8-1.34,1.35-2.38,1.66,1.29.2,2.31.79,3.06,1.77.74.98,1.11,2.21,1.11,3.69,0,.9-.16,1.75-.47,2.56-.31.81-.76,1.5-1.33,2.06-.61.62-1.36,1.05-2.26,1.3-.9.25-2.41.38-4.54.38h-5.63ZM70.27,9.87h1.38c1.72,0,2.93-.24,3.65-.71.71-.47,1.07-1.26,1.07-2.38,0-1.21-.33-2.07-.98-2.56-.66-.49-1.9-.73-3.73-.73h-1.38v6.37ZM70.27,19.69h1.24c1.26,0,2.21-.05,2.84-.15.63-.1,1.12-.28,1.49-.53.44-.29.79-.69,1.03-1.18.24-.5.36-1.04.36-1.64,0-.71-.15-1.32-.44-1.85-.29-.53-.71-.94-1.26-1.23-.34-.17-.74-.3-1.18-.38-.44-.08-1.02-.12-1.75-.12h-2.34v7.08Z"></path>
      <path class="cls-2" d="M98.21,16h-11.5c.08,1.34.48,2.39,1.2,3.15.72.75,1.67,1.13,2.87,1.13,1.06,0,1.94-.22,2.66-.67.71-.44,1.32-1.16,1.85-2.15l2.78,1.55c-.81,1.45-1.81,2.52-3,3.23-1.19.71-2.59,1.06-4.2,1.06-2.31,0-4.14-.7-5.51-2.11-1.36-1.41-2.05-3.28-2.05-5.63s.7-4.11,2.12-5.56c1.41-1.45,3.22-2.18,5.44-2.18s4.12.66,5.41,1.99c1.29,1.33,1.94,3.18,1.94,5.57v.62ZM94.8,13.79c-.13-1.03-.52-1.82-1.18-2.36-.66-.54-1.56-.81-2.7-.81-1.08,0-1.95.26-2.61.79-.66.53-1.12,1.32-1.38,2.38h7.87Z"></path>
      <path class="cls-2" d="M115.17,22.7h-3.29v-1.86c-.59.83-1.27,1.45-2.05,1.85-.78.4-1.68.61-2.69.61-2.03,0-3.63-.7-4.8-2.09-1.17-1.39-1.75-3.29-1.75-5.71,0-2.29.6-4.15,1.79-5.56,1.19-1.41,2.75-2.12,4.67-2.12,1.17,0,2.18.25,3.01.74.83.49,1.44,1.2,1.83,2.12v-2.35h3.29v14.38ZM111.97,15.47c0-1.49-.35-2.64-1.04-3.47-.69-.83-1.66-1.24-2.91-1.24s-2.22.43-2.93,1.28c-.71.85-1.07,2.04-1.07,3.56s.34,2.71,1.03,3.53c.69.83,1.66,1.24,2.91,1.24,1.18,0,2.15-.45,2.89-1.35.74-.9,1.11-2.08,1.11-3.55"></path>
      <path class="cls-2" d="M122.9,8.33v8.1c0,1.4.29,2.4.87,3,.58.61,1.51.91,2.81.91s2.23-.3,2.81-.91c.58-.61.86-1.61.86-3v-8.1h3.29v7.11c0,2.75-.55,4.75-1.65,5.99-1.1,1.24-2.86,1.87-5.28,1.87s-4.24-.62-5.34-1.85c-1.1-1.23-1.65-3.24-1.65-6.01v-7.11h3.29Z"></path>
      <polygon class="cls-2" points="138.75 22.71 138.75 11.21 136.24 11.21 136.24 8.33 138.75 8.33 138.75 2.88 142.04 2.88 142.04 8.33 144.56 8.33 144.56 11.21 142.04 11.21 142.04 22.71 138.75 22.71"></polygon>
      <path class="cls-2" d="M149.87,29.47h-3.38l3.94-8.01-5.28-13.14h3.64l2.64,7.45c.15.46.28.92.4,1.39.12.47.21.95.28,1.43.13-.51.44-1.31.94-2.41l.08-.18,3.55-7.68h3.57l-10.38,21.14Z"></path>
      <path class="cls-2" d="M183.62,11.33h8.8c0,.15,0,.36.01.64.03.72.05,1.2.05,1.46,0,3.12-.9,5.55-2.68,7.28-1.79,1.73-4.31,2.59-7.57,2.59-1.82,0-3.44-.27-4.87-.8-1.43-.54-2.67-1.34-3.75-2.43-1.05-1.07-1.86-2.33-2.42-3.78-.56-1.45-.84-2.99-.84-4.64s.29-3.22.86-4.64c.57-1.42,1.42-2.66,2.54-3.75,1.08-1.06,2.35-1.87,3.81-2.43s3.01-.83,4.67-.83c1.75,0,3.31.32,4.69.96,1.38.64,2.61,1.61,3.69,2.93l-2.64,1.99c-.75-.87-1.59-1.52-2.53-1.94-.94-.43-1.99-.64-3.15-.64-2.41,0-4.37.77-5.89,2.31-1.52,1.54-2.28,3.55-2.28,6.01s.76,4.54,2.28,6.1c1.52,1.56,3.5,2.34,5.92,2.34,2.06,0,3.69-.48,4.87-1.44,1.18-.96,1.77-2.27,1.77-3.93v-.32h-5.34v-3.05Z"></path>
      <path class="cls-2" d="M209.53,22.7h-3.29v-1.86c-.59.83-1.27,1.45-2.06,1.85-.78.4-1.68.61-2.69.61-2.03,0-3.63-.7-4.8-2.09-1.17-1.39-1.75-3.29-1.75-5.71,0-2.29.6-4.15,1.79-5.56,1.19-1.41,2.75-2.12,4.67-2.12,1.17,0,2.18.25,3.01.74.83.49,1.44,1.2,1.83,2.12v-2.35h3.29v14.38ZM206.33,15.47c0-1.49-.35-2.64-1.04-3.47-.69-.83-1.66-1.24-2.91-1.24s-2.22.43-2.93,1.28c-.71.85-1.07,2.04-1.07,3.56s.34,2.71,1.03,3.53c.69.83,1.66,1.24,2.91,1.24,1.18,0,2.15-.45,2.89-1.35.74-.9,1.11-2.08,1.11-3.55"></path>
      <path class="cls-2" d="M217.37,10.62c.35-.95.82-1.65,1.4-2.11.58-.46,1.3-.68,2.16-.68.47,0,.92.06,1.37.17.45.11.89.27,1.33.49l-1.18,2.79c-.28-.2-.59-.35-.92-.45-.33-.1-.7-.15-1.1-.15-1.09,0-1.88.44-2.35,1.31-.48.87-.71,2.34-.71,4.41v6.31h-3.29v-14.41h3.29v2.32Z"></path>
      <path class="cls-2" d="M239.04,22.7h-3.29v-1.86c-.59.83-1.27,1.45-2.05,1.85-.78.4-1.68.61-2.69.61-2.03,0-3.63-.7-4.8-2.09-1.17-1.39-1.75-3.29-1.75-5.71,0-2.29.6-4.15,1.79-5.56,1.19-1.41,2.75-2.12,4.67-2.12,1.17,0,2.18.25,3.01.74.83.49,1.44,1.2,1.83,2.12v-2.35h3.29v14.38ZM235.84,15.47c0-1.49-.35-2.64-1.04-3.47-.69-.83-1.66-1.24-2.91-1.24s-2.22.43-2.94,1.28c-.71.85-1.07,2.04-1.07,3.56s.34,2.71,1.03,3.53c.69.83,1.66,1.24,2.91,1.24,1.18,0,2.15-.45,2.89-1.35.74-.9,1.11-2.08,1.11-3.55"></path>
      <path class="cls-2" d="M257.12,21.81c0,2.81-.56,4.79-1.68,5.94-1.12,1.15-3.02,1.72-5.67,1.72-1.98,0-3.56-.42-4.75-1.25-1.18-.83-1.78-1.94-1.8-3.33l3.53-.02c.05.62.34,1.09.87,1.41.52.32,1.26.49,2.21.49,1.41,0,2.42-.31,3.03-.93.62-.62.93-1.65.94-3.09l.03-1.91c-.59.83-1.27,1.44-2.06,1.85-.78.41-1.68.61-2.69.61-2.03,0-3.63-.7-4.8-2.08-1.17-1.39-1.75-3.29-1.75-5.71s.6-4.15,1.79-5.56c1.19-1.41,2.75-2.12,4.67-2.12,1.17,0,2.18.25,3.01.74.83.49,1.44,1.2,1.83,2.11v-2.35h3.29v13.48ZM253.92,15.47c0-1.49-.35-2.64-1.04-3.47-.69-.83-1.66-1.24-2.9-1.24s-2.22.43-2.94,1.28c-.71.85-1.07,2.04-1.07,3.56s.34,2.7,1.03,3.53c.69.83,1.66,1.24,2.91,1.24,1.18,0,2.15-.45,2.89-1.35.74-.9,1.11-2.08,1.11-3.55"></path>
      <path class="cls-2" d="M275.52,16h-11.5c.08,1.34.48,2.39,1.2,3.15.72.75,1.67,1.13,2.87,1.13,1.06,0,1.94-.22,2.65-.67.71-.44,1.32-1.16,1.85-2.15l2.78,1.55c-.81,1.45-1.81,2.52-3,3.23-1.19.71-2.59,1.06-4.2,1.06-2.31,0-4.14-.7-5.51-2.11-1.37-1.41-2.05-3.28-2.05-5.63s.7-4.11,2.12-5.56c1.41-1.45,3.22-2.18,5.44-2.18s4.12.66,5.41,1.99c1.29,1.33,1.94,3.18,1.94,5.57v.62ZM272.11,13.79c-.13-1.03-.52-1.82-1.18-2.36-.66-.54-1.56-.81-2.7-.81-1.08,0-1.95.26-2.61.79-.66.53-1.12,1.32-1.38,2.38h7.87Z"></path>
      <path class="cls-2" d="M66.74,45.09v-11.27h2.05c.81,0,1.41.04,1.79.13.38.09.72.23,1,.43.35.26.63.61.82,1.05.19.45.29.94.29,1.49,0,1.07-.3,1.86-.9,2.36-.6.5-1.55.75-2.85.75h-1.19v5.06h-1.02ZM67.76,39.13h.7c1.24,0,2.08-.16,2.5-.47.43-.32.64-.87.64-1.66,0-.33-.05-.64-.15-.92-.1-.28-.24-.53-.44-.75-.2-.23-.47-.39-.82-.48-.34-.09-.93-.14-1.75-.14h-.7v4.42Z"></path>
      <path class="cls-2" d="M82.65,45.09h-1.25l-3.96-5.37h-.61v5.37h-1.02v-11.27h2.07c1.22,0,2.14.25,2.74.76.61.51.91,1.28.91,2.31,0,.88-.26,1.57-.78,2.07-.52.5-1.24.75-2.15.75l4.05,5.37ZM76.83,34.71v4.16h1.03c.96,0,1.62-.15,2-.46.38-.31.57-.82.57-1.56,0-.77-.19-1.33-.58-1.65-.39-.33-1.05-.49-1.98-.49h-1.03Z"></path>
      <path class="cls-2" d="M96.83,39.48c0,.8-.15,1.55-.45,2.27-.3.72-.74,1.35-1.31,1.91-.58.57-1.23.99-1.96,1.29-.73.3-1.5.44-2.31.44s-1.58-.15-2.31-.44c-.72-.29-1.38-.72-1.95-1.29-.57-.57-1.01-1.21-1.31-1.92-.3-.71-.45-1.46-.45-2.26s.15-1.57.45-2.28c.3-.72.74-1.36,1.31-1.93.56-.56,1.21-.98,1.93-1.27.72-.29,1.5-.43,2.32-.43s1.61.15,2.34.44c.73.29,1.37.71,1.94,1.27.57.57,1.01,1.21,1.31,1.93.3.71.45,1.47.45,2.28M90.8,44.47c.67,0,1.3-.12,1.89-.37.6-.25,1.13-.6,1.61-1.08.47-.48.82-1.02,1.07-1.63.25-.61.37-1.25.37-1.92s-.12-1.32-.37-1.92c-.25-.6-.61-1.15-1.08-1.63-.47-.47-1-.83-1.6-1.08-.6-.25-1.23-.37-1.91-.37s-1.3.12-1.89.37c-.59.24-1.12.6-1.6,1.08-.47.49-.83,1.03-1.08,1.63-.25.6-.37,1.24-.37,1.92s.12,1.32.37,1.92c.25.6.61,1.15,1.08,1.63.47.48,1,.84,1.59,1.08.59.24,1.22.37,1.9.37"></path>
      <polygon class="cls-2" points="100.28 45.09 100.28 33.82 105.86 33.82 105.86 34.78 101.3 34.78 101.3 38.31 105.69 38.31 105.69 39.27 101.3 39.27 101.3 45.09 100.28 45.09"></polygon>
      <polygon class="cls-2" points="109.35 45.09 109.35 33.82 114.93 33.82 114.93 34.78 110.38 34.78 110.38 38.31 114.93 38.31 114.93 39.27 110.38 39.27 110.38 44.13 114.93 44.13 114.93 45.09 109.35 45.09"></polygon>
      <path class="cls-2" d="M117.76,43.2l.88-.47c.16.55.45.98.85,1.29.4.31.89.46,1.45.46.71,0,1.27-.21,1.67-.63.4-.42.6-1,.6-1.75,0-.54-.13-.99-.41-1.35-.27-.36-.85-.78-1.73-1.25-1.13-.6-1.89-1.13-2.26-1.58-.37-.46-.56-1.01-.56-1.65,0-.8.27-1.45.81-1.95.54-.5,1.24-.75,2.11-.75.56,0,1.06.12,1.47.36.42.24.76.6,1.02,1.07l-.79.48c-.16-.32-.4-.57-.7-.74-.3-.17-.66-.25-1.07-.25-.55,0-.99.16-1.32.49-.33.33-.49.77-.49,1.32,0,.79.65,1.53,1.95,2.21.24.12.42.22.54.28.96.53,1.6,1.03,1.92,1.5.32.47.49,1.08.49,1.83,0,1.01-.29,1.81-.88,2.41-.59.59-1.39.89-2.41.89-.74,0-1.37-.18-1.9-.55-.52-.37-.94-.91-1.23-1.64"></path>
      <path class="cls-2" d="M126.79,43.2l.88-.47c.17.55.45.98.85,1.29.4.31.89.46,1.45.46.71,0,1.27-.21,1.67-.63.4-.42.6-1,.6-1.75,0-.54-.13-.99-.4-1.35-.27-.36-.85-.78-1.74-1.25-1.13-.6-1.89-1.13-2.26-1.58-.37-.46-.56-1.01-.56-1.65,0-.8.27-1.45.81-1.95.54-.5,1.24-.75,2.11-.75.56,0,1.06.12,1.47.36.42.24.76.6,1.02,1.07l-.79.48c-.16-.32-.4-.57-.7-.74-.3-.17-.66-.25-1.07-.25-.55,0-.99.16-1.32.49-.33.33-.49.77-.49,1.32,0,.79.65,1.53,1.95,2.21.24.12.42.22.54.28.96.53,1.6,1.03,1.92,1.5.32.47.49,1.08.49,1.83,0,1.01-.29,1.81-.88,2.41-.59.59-1.39.89-2.41.89-.74,0-1.37-.18-1.9-.55-.52-.37-.94-.91-1.23-1.64"></path>
      <rect class="cls-1" x="136.68" y="33.82" width="1.02" height="11.27"></rect>
      <path class="cls-2" d="M153.23,39.48c0,.8-.15,1.55-.46,2.27-.3.72-.74,1.35-1.31,1.91-.58.57-1.24.99-1.96,1.29-.73.3-1.5.44-2.31.44s-1.58-.15-2.31-.44c-.72-.29-1.38-.72-1.95-1.29-.57-.57-1.01-1.21-1.31-1.92-.3-.71-.45-1.46-.45-2.26s.15-1.57.45-2.28c.3-.72.74-1.36,1.31-1.93.56-.56,1.21-.98,1.93-1.27.72-.29,1.5-.43,2.32-.43s1.61.15,2.34.44c.73.29,1.37.71,1.94,1.27.57.57,1.01,1.21,1.31,1.93.3.71.45,1.47.45,2.28M147.19,44.47c.67,0,1.3-.12,1.89-.37.6-.25,1.13-.6,1.61-1.08.47-.48.82-1.02,1.07-1.63.25-.61.37-1.25.37-1.92s-.12-1.32-.37-1.92c-.25-.6-.61-1.15-1.08-1.63-.47-.47-1-.83-1.6-1.08-.6-.25-1.23-.37-1.91-.37s-1.3.12-1.89.37c-.59.24-1.12.6-1.6,1.08-.47.49-.83,1.03-1.08,1.63-.25.6-.37,1.24-.37,1.92s.12,1.32.37,1.92c.25.6.61,1.15,1.08,1.63.47.48,1,.84,1.59,1.08.59.24,1.22.37,1.9.37"></path>
      <polygon class="cls-2" points="156.67 45.09 156.67 33.34 164.65 42.77 164.65 33.82 165.61 33.82 165.61 45.42 157.64 35.98 157.64 45.09 156.67 45.09"></polygon>
      <path class="cls-2" d="M168.06,45.09l4.95-11.71,4.74,11.71h-1.11l-1.44-3.82h-4.6l-1.49,3.82h-1.04ZM170.94,40.39h3.92l-1.93-4.9-2,4.9Z"></path>
      <polygon class="cls-2" points="180.19 45.09 180.19 33.82 181.22 33.82 181.22 44.13 185.08 44.13 185.08 45.09 180.19 45.09"></polygon>
    </g>
  </g>
</svg>